<svg xmlns="http://www.w3.org/2000/svg" viewBox="0 0 473.677 473.677">
  <path fill="#473080"
    d="M0 236.842C0 106.024 106.036 0 236.835 0c130.807 0 236.842 106.024 236.842 236.842 0 130.792-106.036 236.835-236.842 236.835C106.036 473.677 0 367.634 0 236.842z" />
  <path fill="#fff"
    d="M375.958 227.265c-5.235 0-10.246.987-14.943 2.737-5.217-36.315-33.708-64.078-68.094-64.078-11.189 0-21.749 2.973-31.098 8.193-14.898-26.147-41.274-43.54-71.344-43.54-38.63 0-71.112 28.735-81.044 67.847-28.413 5.976-49.893 33.473-49.893 66.546 0 37.441 27.505 67.787 61.434 67.787 3.784 0 7.464-.423 11.065-1.148 1.387.236 2.805.393 4.259.393h234.116a25.91 25.91 0 0 0 8.743-1.526c24.382-1.825 43.656-24.154 43.656-51.52-.004-28.543-20.979-51.691-46.857-51.691z" />
  <path fill="#473080"
    d="M308.713 219.902h-39.18V106.043c0-36.225-56.109-36.543-56.109-.404v114.266h-37.381c-.273.004-.542.03-.811.071-2.894.254-4.775 1.993-5.613 4.192-1.084 2.176-1.058 4.832.841 7.135.236.333.512.639.815.924 22.026 22.022 44.048 44.048 66.078 66.071 2.711 2.711 7.225 2.64 9.914-.052 22.127-22.131 44.25-44.262 66.377-66.392 4.283-4.286 1.135-11.952-4.931-11.952z" />
</svg>
