<?xml version="1.0" encoding="utf-8"?>
<svg height="512px" viewBox="0 0 512 512" width="512px" xmlns="http://www.w3.org/2000/svg">
  <circle cx="256" cy="256" r="256" fill="#008C31" />
  <path d="m512 256c0 141.386719-114.613281 256-256 256s-256-114.613281-256-256 114.613281-256 256-256 256 114.613281 256 256zm0 0" fill="url(#a)"/>
  <g fill="#fff" transform="matrix(0.886027, 0, 0, 0.886027, 29.177094, 29.175364)">
    <path d="m386.59375 268.996094c8.28125 0 15-6.714844 15-15v-155.640625c0-8.285157-6.71875-15-15-15h-234.464844c-23.007812 0-41.722656 18.714843-41.722656 41.71875v261.851562c0 23.003907 18.714844 41.722657 41.722656 41.722657h234.464844c8.28125 0 15-6.71875 15-15 0-8.285157-6.71875-15-15-15h-234.464844c-6.464844 0-11.722656-5.257813-11.722656-11.722657 0-6.460937 5.257812-11.71875 11.722656-11.71875h234.464844c8.28125 0 15-6.714843 15-15v-39.410156c0-8.285156-6.71875-15-15-15-8.285156 0-15 6.714844-15 15v24.410156h-177.746094v-193.414062c0-8.28125-6.714844-15-15-15s-15 6.71875-15 15v193.414062h-11.71875c-4.070312 0-8 .597657-11.722656 1.6875v-221.820312c0-6.460938 5.257812-11.71875 11.722656-11.71875h219.464844v140.640625c0 8.285156 6.714844 15 15 15zm0 0"/>
    <path d="m280.382812 284.054688c-7.378906 0-13.359374 5.980468-13.359374 13.359374 0 7.382813 5.980468 13.363282 13.359374 13.363282 7.378907 0 13.359376-5.980469 13.359376-13.363282 0-7.378906-5.980469-13.359374-13.359376-13.359374zm0 0"/>
    <path d="m296.046875 253.804688c0-3.671876 2.082031-6.9375 5.304687-8.3125 19.101563-8.15625 31.441407-26.84375 31.4375-47.613282 0-.207031-.003906-.410156-.011718-.613281-.332032-28.242187-23.410156-51.121094-51.730469-51.121094-28.527344 0-51.734375 23.210938-51.734375 51.738281 0 8.28125 6.714844 15 15 15 8.28125 0 15-6.71875 15-15 0-11.988281 9.75-21.738281 21.734375-21.738281s21.734375 9.75 21.734375 21.738281c0 .132813 0 .265626.003906.398438-.152344 8.574219-5.304687 16.242188-13.214844 19.621094-14.289062 6.101562-23.523437 20.191406-23.523437 35.902344v.859374c0 8.285157 6.714844 15 15 15 8.28125 0 15-6.714843 15-15zm0 0"/>
  </g>
</svg>
